# xmcd
#
# Track frame offsets:
#	150
#	17571
#	35257
#	63537
#	85274
#	102369
#	118295
#	137140
#	152650
#	172956
#	193451
#	210294
#
# Disc length: 2999 seconds
#
# Revision: 1
# Processed by: cddbd v1.5.1PL0 Copyright (c) Steve Scherf et al.
# Submitted via: audiograbber 1.83.01
#
DISCID=a20bb50c
DTITLE=Various Artist - Nashville Underground Sampler Series Volume II
DYEAR=1900
DGENRE=Country
TTITLE0=Hugh Prestwood - Pipers Don't Get Paid
TTITLE1=Hugh Prestwood - The Song Remembers When
TTITLE2=Stephen Allen Davis - Take Time To Know Her
TTITLE3=Stephen Allen Davis - Highway Highway
TTITLE4=Marcus Hummon - Cowboy Take Me Away
TTITLE5=Marcus Hummon - Our Lady Of The Pouring Rain
TTITLE6=Bob di Piero - The Church On Cumberland Road
TTITLE7=Bob di Piero - Worlds Apart
TTITLE8=Gary Nicholson - Choose Love
TTITLE9=Gary Nicholson - The Trouble With The Truth
TTITLE10=Billy Dean - Somewhere In My Broken Heart
TTITLE11=Billy Dean - By My Song
EXTD=
EXTT0=
EXTT1=
EXTT2=
EXTT3=
EXTT4=
EXTT5=
EXTT6=
EXTT7=
EXTT8=
EXTT9=
EXTT10=
EXTT11=
PLAYORDER=
